<svg xmlns="http://www.w3.org/2000/svg" viewBox="0 0 1200 630" width="1200" height="630">
  <defs>
    <linearGradient id="bg" x1="0" y1="0" x2="1" y2="1">
      <stop offset="0" stop-color="#0A0A0B"/><stop offset="1" stop-color="#18181B"/>
    </linearGradient>
    <linearGradient id="amber" x1="0" y1="0" x2="1" y2="1">
      <stop offset="0" stop-color="#FBBF24"/><stop offset="1" stop-color="#F59E0B"/>
    </linearGradient>
    <radialGradient id="glow" cx="0.5" cy="0.5" r="0.5">
      <stop offset="0" stop-color="#FBBF24" stop-opacity="0.15"/><stop offset="1" stop-color="#FBBF24" stop-opacity="0"/>
    </radialGradient>
    <pattern id="grid" width="48" height="48" patternUnits="userSpaceOnUse">
      <path d="M48 0H0V48" fill="none" stroke="#27272A" stroke-width="0.6"/>
    </pattern>
  </defs>
  <rect width="1200" height="630" fill="url(#bg)"/>
  <rect width="1200" height="630" fill="url(#grid)" opacity="0.4"/>
  <ellipse cx="950" cy="310" rx="410" ry="290" fill="url(#glow)"/>
  <circle cx="84" cy="66" r="4" fill="#FBBF24"/>
  <text x="100" y="71" font-size="14" font-weight="500" letter-spacing="2" fill="#A1A1AA" font-family="Inter, system-ui, sans-serif">LARAVEL PACKAGE</text>
  <text x="80" y="280" font-size="64" font-weight="800" letter-spacing="-2" fill="#FAFAFA" font-family="Inter, system-ui, sans-serif">Laravel Commerce</text>
  <text x="80" y="336" font-size="22" font-weight="600" fill="#FBBF24" font-family="Inter, system-ui, sans-serif">Laravel Commerce — meta-package installing the</text>
  <text x="80" y="372" font-size="18" font-weight="400" fill="#A1A1AA" font-family="Inter, system-ui, sans-serif">full Medusa-style commerce domain (catalog, p…</text>
  <g transform="translate(820 165)">
    <rect x="0" y="0" width="300" height="200" rx="16" fill="#18181B" stroke="#27272A" transform="rotate(-10 150 100)"/>
    <rect x="20" y="20" width="300" height="200" rx="16" fill="#18181B" stroke="#3F3F46" transform="rotate(-5 170 120)"/>
    <rect x="40" y="40" width="300" height="200" rx="16" fill="url(#amber)" opacity="0.92"/>
    <rect x="64" y="70" width="150" height="14" rx="7" fill="#18181B" opacity="0.55"/>
    <rect x="64" y="98" width="240" height="10" rx="5" fill="#0A0A0B" opacity="0.35"/>
    <rect x="64" y="118" width="200" height="10" rx="5" fill="#0A0A0B" opacity="0.3"/>
    <rect x="64" y="138" width="220" height="10" rx="5" fill="#0A0A0B" opacity="0.3"/>
  </g>
  <rect x="80" y="545" rx="15" width="88" height="30" fill="#18181B" stroke="#27272A"/><text x="124" y="565" font-size="14" font-weight="500" fill="#A1A1AA" text-anchor="middle" font-family="Inter, system-ui, sans-serif">PHP 8.2+</text><rect x="180" y="545" rx="15" width="128" height="30" fill="#18181B" stroke="#27272A"/><text x="244" y="565" font-size="14" font-weight="500" fill="#A1A1AA" text-anchor="middle" font-family="Inter, system-ui, sans-serif">Laravel 11–13</text><rect x="320" y="545" rx="15" width="48" height="30" fill="#18181B" stroke="#FBBF24"/><text x="344" y="565" font-size="14" font-weight="500" fill="#FBBF24" text-anchor="middle" font-family="Inter, system-ui, sans-serif">MIT</text>
  <text x="1120" y="595" font-size="13" font-weight="500" fill="#52525B" text-anchor="end" font-family="Inter, system-ui, sans-serif">@jeffersongoncalves</text>
</svg>